<?xml version="1.0" encoding="UTF-8" standalone="no"?>
<!-- Created with Inkscape (http://www.inkscape.org/) -->

<svg
   version="1.1"
   id="svg327"
   xml:space="preserve"
   width="682.66669"
   height="682.66669"
   viewBox="0 0 682.66669 682.66669"
   xmlns="http://www.w3.org/2000/svg"
   xmlns:svg="http://www.w3.org/2000/svg"><defs
     id="defs331"><clipPath
       clipPathUnits="userSpaceOnUse"
       id="clipPath341"><path
         d="M 0,512 H 512 V 0 H 0 Z"
         id="path339" /></clipPath></defs><g
     id="g333"
     transform="matrix(1.3333333,0,0,-1.3333333,0,682.66667)"><g
       id="g335"><g
         id="g337"
         clip-path="url(#clipPath341)"><g
           id="g343"
           transform="translate(163.0298,355.9902)"><path
             d="m 0,0 c 21.62,-0.21 38.97,-7.37 38.97,-39.99 0,-9.67 -3.41,-18.81 -8.23,-26.9 -5.24,-8.79 -12.16,-16.34 -18.2,-22 -7.45,-6.99 -13.57,-11.1 -13.57,-11.1 0,0 -6.12,4.11 -13.57,11.1 -6.04,5.66 -12.96,13.21 -18.2,22 -4.82,8.09 -8.23,17.23 -8.23,26.9 0,32.62 17.35,39.78 38.97,39.99"
             style="fill:none;stroke:#ffff;stroke-width:15;stroke-linecap:round;stroke-linejoin:round;stroke-miterlimit:10;stroke-dasharray:none;stroke-opacity:1"
             id="path345" /></g><g
           id="g347"
           transform="translate(201.9399,219.4502)"><path
             d="m 0,0 c 0.04,-1.14 0.06,-2.29 0.06,-3.45 0,-18.9 -13.01,-35.76 -24.19,-46.75 -8.42,-8.29 -15.81,-13.25 -15.81,-13.25 0,0 -7.39,4.96 -15.81,13.25 -11.18,10.99 -24.19,27.85 -24.19,46.75 0,1.16 0.02,2.31 0.06,3.45"
             style="fill:none;stroke:#ffff;stroke-width:15;stroke-linecap:round;stroke-linejoin:round;stroke-miterlimit:10;stroke-dasharray:none;stroke-opacity:1"
             id="path349" /></g><g
           id="g351"
           transform="translate(70.79,196.8101)"><path
             d="m 0,0 -0.01,-0.01 c -0.02,-0.06 -0.06,-0.12 -0.09,-0.18 -19.33,-33.48 -0.36,-80.62 -0.36,-80.62 0,0 4.68,0.66 11.73,2.54 11.97,3.17 30.78,9.84 45.15,22.64 4.93,4.39 9.33,9.5 12.76,15.44 2.57,4.47 4.63,8.67 6.22,12.63"
             style="fill:none;stroke:#ffff;stroke-width:15;stroke-linecap:round;stroke-linejoin:round;stroke-miterlimit:10;stroke-dasharray:none;stroke-opacity:1"
             id="path353" /></g><g
           id="g355"
           transform="translate(196.79,141.1802)"><path
             d="m 0,0 c -3.83,-9.34 -9.3,-17.73 -14.79,-24.67 -10,-12.67 -20,-20.51 -20,-20.51 0,0 -10,7.84 -20,20.51 -5.49,6.94 -10.96,15.33 -14.79,24.67"
             style="fill:none;stroke:#ffff;stroke-width:15;stroke-linecap:round;stroke-linejoin:round;stroke-miterlimit:10;stroke-dasharray:none;stroke-opacity:1"
             id="path357" /></g><g
           id="g359"
           transform="translate(253.21,196.8101)"><path
             d="m 0,0 c 0.021,-0.06 0.07,-0.13 0.1,-0.19 19.33,-33.48 0.36,-80.62 0.36,-80.62 0,0 -4.68,0.66 -11.73,2.54 -11.97,3.17 -30.78,9.84 -45.15,22.64 -4.93,4.39 -9.33,9.5 -12.76,15.44 -2.57,4.47 -4.63,8.67 -6.22,12.63"
             style="fill:none;stroke:#ffff;stroke-width:15;stroke-linecap:round;stroke-linejoin:round;stroke-miterlimit:10;stroke-dasharray:none;stroke-opacity:1"
             id="path361" /></g><g
           id="g363"
           transform="translate(271.6104,258.3501)"><path
             d="m 0,0 c 13.989,-27.39 9.8,-61.85 9.8,-61.85 0,0 -12.38,-1.5 -28.191,0.3 -16.109,1.84 -35.789,7.12 -49.589,20.92 -0.57,0.57 -1.14,1.15 -1.69,1.73 -14.69,15.26 -23.891,32.65 -26.371,47.65"
             style="fill:none;stroke:#ffff;stroke-width:15;stroke-linecap:round;stroke-linejoin:round;stroke-miterlimit:10;stroke-dasharray:none;stroke-opacity:1"
             id="path365" /></g><g
           id="g367"
           transform="translate(130.23,289.1001)"><path
             d="m 0,0 c -23.35,-15.82 -49.93,-26.34 -77.84,-30.74 -8.55,-1.36 -17.23,-2.14 -25.97,-2.32 15.47,68.63 69.78,99.63 134.55,99.95 0.34,0.01 0.69,0.01 1.03,0.01 0.34,0 0.69,0 1.03,-0.01 64.77,-0.32 119.08,-31.32 134.55,-99.95 -8.74,0.18 -17.42,0.96 -25.97,2.32 -27.91,4.4 -54.49,14.92 -77.84,30.74"
             style="fill:none;stroke:#ffff;stroke-width:15;stroke-linecap:round;stroke-linejoin:round;stroke-miterlimit:10;stroke-dasharray:none;stroke-opacity:1"
             id="path369" /></g><g
           id="g371"
           transform="translate(52.3901,258.3501)"><path
             d="m 0,0 c -13.99,-27.39 -9.8,-61.85 -9.8,-61.85 0,0 12.38,-1.5 28.19,0.3 16.11,1.84 35.79,7.12 49.59,20.92 0.57,0.57 1.14,1.15 1.69,1.73 14.69,15.26 23.89,32.65 26.37,47.65"
             style="fill:none;stroke:#ffff;stroke-width:15;stroke-linecap:round;stroke-linejoin:round;stroke-miterlimit:10;stroke-dasharray:none;stroke-opacity:1"
             id="path373" /></g><g
           id="g375"
           transform="translate(142,116.5098)"><path
             d="M 0,0 V -0.51 C 0,-11.38 -7.27,-21.25 -14.66,-28.46 -22.27,-35.9 -30,-40.51 -30,-40.51 c 0,0 -30,17.91 -30,40 0,0.85 0.02,1.7 0.06,2.54"
             style="fill:none;stroke:#ffff;stroke-width:15;stroke-linecap:round;stroke-linejoin:round;stroke-miterlimit:10;stroke-dasharray:none;stroke-opacity:1"
             id="path377" /></g><g
           id="g379"
           transform="translate(241.9404,118.54)"><path
             d="m 0,0 c 0.04,-0.84 0.06,-1.69 0.06,-2.54 0,-22.09 -30,-40 -30,-40 0,0 -7.73,4.61 -15.34,12.05 -7.39,7.21 -14.66,17.08 -14.66,27.95 v 0.51"
             style="fill:none;stroke:#ffff;stroke-width:15;stroke-linecap:round;stroke-linejoin:round;stroke-miterlimit:10;stroke-dasharray:none;stroke-opacity:1"
             id="path381" /></g><g
           id="g383"
           transform="translate(196.6602,88.0498)"><path
             d="m 0,0 c -10.89,-18.75 -34.66,-32.05 -34.66,-32.05 0,0 -23.77,13.3 -34.66,32.05"
             style="fill:none;stroke:#ffff;stroke-width:15;stroke-linecap:round;stroke-linejoin:round;stroke-miterlimit:10;stroke-dasharray:none;stroke-opacity:1"
             id="path385" /></g><g
           id="g387"
           transform="translate(402,209.4902)"><path
             d="m 0,0 c 22.09,0 40,-6.86 40,-40 0,-4.86 -0.86,-9.59 -2.34,-14.12 C 32.68,-69.47 20.7,-82.53 11.57,-90.73 5.06,-96.6 0,-100 0,-100 c 0,0 -5.06,3.4 -11.57,9.27 -9.13,8.2 -21.11,21.26 -26.09,36.61 -1.48,4.53 -2.34,9.26 -2.34,14.12 0,33.14 17.91,40 40,40 z"
             style="fill:none;stroke:#ffff;stroke-width:15;stroke-linecap:round;stroke-linejoin:round;stroke-miterlimit:10;stroke-dasharray:none;stroke-opacity:1"
             id="path389" /></g><g
           id="g391"
           transform="translate(439.6602,155.3701)"><path
             d="m 0,0 c 1.28,-1.41 2.6,-2.79 3.97,-4.16 9.05,-9.05 20.98,-14.43 32.73,-17.59 9.13,-2.45 18.159,-3.54 25.64,-3.97 -6.28,53.28 -40.63,80.35 -100,80.35 -59.37,0 -92.62,-27.07 -98.901,-80.35 7.311,0.42 15.881,1.47 24.571,3.81 11.65,3.13 23.49,8.54 32.7,17.75 1.37,1.37 2.689,2.75 3.97,4.16"
             style="fill:none;stroke:#ffff;stroke-width:15;stroke-linecap:round;stroke-linejoin:round;stroke-miterlimit:10;stroke-dasharray:none;stroke-opacity:1"
             id="path393" /></g><g
           id="g395"
           transform="translate(162,356)"><path
             d="M 0,0 V 15.28 C 0,41.32 13.98,71.01 36.4,84.06"
             style="fill:none;stroke:#ffff;stroke-width:15;stroke-linecap:round;stroke-linejoin:round;stroke-miterlimit:10;stroke-dasharray:none;stroke-opacity:1"
             id="path397" /></g><g
           id="g399"
           transform="translate(390.4297,118.75)"><path
             d="m 0,0 c -3.01,-4.79 -6.76,-9.51 -11.18,-13.93 -1.96,-1.96 -4.11,-3.67 -6.37,-5.17 -9.42,-6.2 -20.96,-8.57 -30.59,-9.33 -11.059,-0.88 -19.61,0.36 -19.61,0.36 0,0 -3.399,23.38 4.99,42.78"
             style="fill:none;stroke:#ffff;stroke-width:15;stroke-linecap:round;stroke-linejoin:round;stroke-miterlimit:10;stroke-dasharray:none;stroke-opacity:1"
             id="path401" /></g><g
           id="g403"
           transform="translate(476.3301,133.46)"><path
             d="m 0,0 c 8.39,-19.4 4.99,-42.78 4.99,-42.78 0,0 -8.65,-1.26 -19.801,-0.35 -9.589,0.78 -21.039,3.16 -30.399,9.32 -2.26,1.5 -4.41,3.21 -6.37,5.17 -4.42,4.42 -8.17,9.14 -11.18,13.93"
             style="fill:none;stroke:#ffff;stroke-width:15;stroke-linecap:round;stroke-linejoin:round;stroke-miterlimit:10;stroke-dasharray:none;stroke-opacity:1"
             id="path405" /></g><g
           id="g407"
           transform="translate(461.5195,90.3301)"><path
             d="m 0,0 c 2.011,-18.78 -12.619,-40.33 -12.619,-40.33 0,0 -7.811,0.8 -17.03,3.77 -5.13,1.66 -10.71,4 -15.601,7.25"
             style="fill:none;stroke:#ffff;stroke-width:15;stroke-linecap:round;stroke-linejoin:round;stroke-miterlimit:10;stroke-dasharray:none;stroke-opacity:1"
             id="path409" /></g><g
           id="g411"
           transform="translate(387.0098,61.71)"><path
             d="m 0,0 c -4.8,-3.29 -10.109,-5.77 -14.85,-7.59 -7.679,-2.94 -13.839,-4.12 -13.839,-4.12 0,0 -17.181,21.09 -16.031,40.31"
             style="fill:none;stroke:#ffff;stroke-width:15;stroke-linecap:round;stroke-linejoin:round;stroke-miterlimit:10;stroke-dasharray:none;stroke-opacity:1"
             id="path413" /></g><g
           id="g415"
           transform="translate(431.1201,99.6499)"><path
             d="m 0,0 c 0.58,-3.09 0.88,-6.32 0.88,-9.65 0,-11.4 -8,-21.7 -15.731,-28.98 -7.25,-6.83 -14.269,-11.02 -14.269,-11.02 0,0 -7.49,4.48 -14.99,11.71 -7.5,7.24 -15.01,17.24 -15.01,28.29 0,3.33 0.3,6.56 0.88,9.65"
             style="fill:none;stroke:#ffff;stroke-width:15;stroke-linecap:round;stroke-linejoin:round;stroke-miterlimit:10;stroke-dasharray:none;stroke-opacity:1"
             id="path417" /></g><g
           id="g419"
           transform="translate(431.8701,53.7798)"><path
             d="m 0,0 c 0.09,-1.25 0.13,-2.51 0.13,-3.78 0,-22.09 -30,-40 -30,-40 0,0 -30,17.91 -30,40 0,1.39 0.05,2.76 0.16,4.12"
             style="fill:none;stroke:#ffff;stroke-width:15;stroke-linecap:round;stroke-linejoin:round;stroke-miterlimit:10;stroke-dasharray:none;stroke-opacity:1"
             id="path421" /></g><g
           id="g423"
           transform="translate(402,210)"><path
             d="M 0,0 C 0,32.32 -7.9,76.05 -22.89,104.46"
             style="fill:none;stroke:#ffff;stroke-width:15;stroke-linecap:round;stroke-linejoin:round;stroke-miterlimit:10;stroke-dasharray:none;stroke-opacity:1"
             id="path425" /></g><g
           id="g427"
           transform="translate(501.9805,380.7598)"><path
             d="m 0,0 c -0.66,-21.52 -18.311,-38.76 -39.98,-38.76 -22.09,0 -40,17.91 -40,40 0,22.09 17.91,40 40,40 22.089,0 40,-17.91 40,-40"
             style="fill:none;stroke:#ffff;stroke-width:15;stroke-linecap:round;stroke-linejoin:round;stroke-miterlimit:10;stroke-dasharray:none;stroke-opacity:1"
             id="path429" /></g><g
           id="g431"
           transform="translate(10,502)"><path
             d="M 0,0 C 4.05,-1.58 19,-9.8 19,-40 19,-70.2 4.05,-78.08 0,-79.66"
             style="fill:none;stroke:#ffff;stroke-width:15;stroke-linecap:round;stroke-linejoin:round;stroke-miterlimit:10;stroke-dasharray:none;stroke-opacity:1"
             id="path433" /></g><g
           id="g435"
           transform="translate(382,422)"><path
             d="M 0,0 C -23.95,-23.95 -57.84,-34.91 -91.12,-29.68"
             style="fill:none;stroke:#ffff;stroke-width:15;stroke-linecap:round;stroke-linejoin:round;stroke-miterlimit:10;stroke-dasharray:none;stroke-opacity:1"
             id="path437" /></g><g
           id="g439"
           transform="translate(123,460)"><path
             d="m 0,0 c 0,-5.523 -4.477,-10 -10,-10 -5.523,0 -10,4.477 -10,10 0,5.523 4.477,10 10,10 C -4.477,10 0,5.523 0,0"
             style="fill:#ffff;fill-opacity:1;fill-rule:nonzero;stroke:none"
             id="path441" /></g><g
           id="g443"
           transform="translate(502,382)"><path
             d="M 0,0 C 0,-0.42 0,-0.83 -0.02,-1.24 -0.67,-44.85 -36.24,-80 -80,-80 c -15.79,0 -30.5,4.57 -42.89,12.46 -4.4,2.8 -8.51,6.02 -12.27,9.6 l -40.56,38.63 c -36.09,34.37 -80.3,60.54 -127.88,77.37 -13.466,4.765 -27.201,8.779 -41.098,12.018"
             style="fill:none;stroke:#ffff;stroke-width:15;stroke-linecap:round;stroke-linejoin:round;stroke-miterlimit:10;stroke-dasharray:none;stroke-opacity:1"
             id="path445" /></g><g
           id="g447"
           transform="translate(68.0439,462)"><path
             d="M 0,0 H -39.044"
             style="fill:none;stroke:#ffff;stroke-width:15;stroke-linecap:round;stroke-linejoin:round;stroke-miterlimit:10;stroke-dasharray:none;stroke-opacity:1"
             id="path449" /></g></g></g></g></svg>
