<svg id="Layer_3" height="512" viewBox="0 0 64 64" width="512" fill="white" xmlns="http://www.w3.org/2000/svg" data-name="Layer 3"><path d="m2 40h36a1 1 0 0 0 1-1v-32a1 1 0 0 0 -1-1h-36a1 1 0 0 0 -1 1v32a1 1 0 0 0 1 1zm1-32h34v30h-34z"/><path d="m62 45v-14a.992.992 0 0 0 -.092-.419l-5.195-11.257a4.041 4.041 0 0 0 -3.713-2.324h-8a4 4 0 0 0 -4 4v21h-39a1 1 0 0 0 -1 1v4a1 1 0 0 0 1 1h3.263a8 8 0 1 0 15.474 0h13.526a7.993 7.993 0 1 0 15.668 3h12.069a1 1 0 0 0 1-1v-4a1 1 0 0 0 -1-1zm-17-26h8.08a2.005 2.005 0 0 1 1.82 1.162l5.1 11.057v13.781h-7v-2a1 1 0 0 0 -1-1h-9v-21a2 2 0 0 1 2-2zm-42 27v-2h4.726a8.069 8.069 0 0 0 -1.644 2zm10 10a6 6 0 1 1 6-6 6.006 6.006 0 0 1 -6 6zm6.918-10a8.069 8.069 0 0 0 -1.644-2h18.452a8.069 8.069 0 0 0 -1.644 2zm22.082 10a6 6 0 1 1 6-6 6.006 6.006 0 0 1 -6 6zm19-7h-11.069a7.99 7.99 0 0 0 -2.657-5h3.726v2a1 1 0 0 0 1 1h9z"/><path d="m46 31h2.382l.723 1.447a1 1 0 0 0 .895.553h7a1 1 0 0 0 .9-1.447l-5-10a1 1 0 0 0 -.9-.553h-6a1 1 0 0 0 -1 1v8a1 1 0 0 0 1 1zm1-8h4.382l4 8h-4.764l-.718-1.447a1 1 0 0 0 -.9-.553h-2z"/><path d="m45 35h4v2h-4z"/><path d="m13 47a3 3 0 1 0 3 3 3 3 0 0 0 -3-3zm0 4a1 1 0 1 1 1-1 1 1 0 0 1 -1 1z"/><path d="m42 47a3 3 0 1 0 3 3 3 3 0 0 0 -3-3zm0 4a1 1 0 1 1 1-1 1 1 0 0 1 -1 1z"/><path d="m31 19h-5v-2a1 1 0 0 0 -1-1h-.184a2.966 2.966 0 0 0 .184-1 3.005 3.005 0 0 0 -3.506-2.958 4.01 4.01 0 0 0 -6.988 0 3.005 3.005 0 0 0 -3.506 2.958 2.966 2.966 0 0 0 .184 1h-.184a1 1 0 0 0 -1 1v15a4 4 0 0 0 4 4h8a4 4 0 0 0 4-4v-1h2a4 4 0 0 0 4-4v-7a1 1 0 0 0 -1-1zm-18-4a1 1 0 0 1 1-1 .915.915 0 0 1 .52.148 1 1 0 0 0 1.536-.608 2 2 0 0 1 3.888 0 1 1 0 0 0 1.536.608.915.915 0 0 1 .52-.148 1 1 0 0 1 0 2h-8a1 1 0 0 1 -1-1zm11 17a2 2 0 0 1 -2 2h-8a2 2 0 0 1 -2-2v-14h12zm6-5a2 2 0 0 1 -2 2h-2v-8h4z"/><path d="m14 21h2v9h-2z"/><path d="m20 21h2v9h-2z"/></svg>