<?xml version="1.0" encoding="UTF-8" standalone="no"?>
<!-- Created with Inkscape (http://www.inkscape.org/) -->

<svg
   version="1.1"
   id="svg981"
   xml:space="preserve"
   width="682.66669"
   height="682.66669"
   viewBox="0 0 682.66669 682.66669"
   xmlns="http://www.w3.org/2000/svg"
   xmlns:svg="http://www.w3.org/2000/svg"><defs
     id="defs985"><clipPath
       clipPathUnits="userSpaceOnUse"
       id="clipPath995"><path
         d="M 0,512 H 512 V 0 H 0 Z"
         id="path993" /></clipPath></defs><g
     id="g987"
     transform="matrix(1.3333333,0,0,-1.3333333,0,682.66667)"><g
       id="g989"><g
         id="g991"
         clip-path="url(#clipPath995)"><g
           id="g997"
           transform="translate(255.9697,35.5244)"><path
             d="m 0,0 -13.93,6.09 -22.423,11.212 c -5.269,2.634 -9.524,0.646 -13.194,0.371 C -57.639,16.447 -62.53,8.061 -59.613,0.415 l 2.106,-5.523 c 3.951,-10.359 13.202,-17.767 24.175,-19.358 l 23.524,-3.411 c 9.191,-1.333 13.195,6.792 14.562,7.952 C 10.181,-13.354 7.81,-3.414 0,0 Z"
             style="fill:none;stroke:;stroke-width:15;stroke-linecap:round;stroke-linejoin:round;stroke-miterlimit:10;stroke-dasharray:none;stroke-opacity:1"
             id="path999" /></g><g
           id="g1001"
           transform="translate(354.6318,322.2139)"><path
             d="m 0,0 c 0,-11.97 -9.704,-21.673 -21.673,-21.673 -11.97,0 -21.673,9.703 -21.673,21.673 0,11.97 9.703,21.673 21.673,21.673 C -9.704,21.673 0,11.97 0,0 Z"
             style="fill:none;stroke:#ffff;stroke-width:15;stroke-linecap:round;stroke-linejoin:round;stroke-miterlimit:10;stroke-dasharray:none;stroke-opacity:1"
             id="path1003" /></g><g
           id="g1005"
           transform="translate(247.5532,194.0767)"><path
             d="m 0,0 -3.208,-6.255 c -9.375,-18.307 -27.005,-21.013 -28.346,-21.689 -14.482,-4.368 -17.797,-23.247 -5.913,-32.339 l 6.948,-5.309 c 5.491,-4.203 6.165,-12.228 1.449,-17.285 -28.179,-30.156 -18.586,-20.762 -41.47,-41.309 -9.944,-8.979 -24.495,-10.618 -36.189,-4.082 -2.463,1.861 -13.074,4.926 -16.642,17.024 -4.391,14.744 6.518,23.848 7.663,26.014 10.803,13.839 10.769,25.343 18.481,49.694 0.644,2.272 0.583,4.685 -0.181,6.928 l -7.169,21.177 c -2.484,7.36 -2.715,15.284 -0.664,22.745 H -3.6 c 0.392,-0.573 0.865,-1.116 1.388,-1.639 C 1.438,10.085 2.333,4.545 0,0 Z"
             style="fill:none;stroke:#ffff;stroke-width:15;stroke-linecap:round;stroke-linejoin:round;stroke-miterlimit:10;stroke-dasharray:none;stroke-opacity:1"
             id="path1007" /></g><g
           id="g1009"
           transform="translate(231.2285,356.9453)"><path
             d="m 0,0 h 56.424 c 9.793,13.464 25.549,22.588 43.676,23.11 1.578,2.026 3.438,4.044 5.638,5.991 l 37.739,33.414 c 3.157,2.796 4.565,7.069 3.68,11.202 l -4.847,22.756 c -1.346,6.27 -6.596,8.118 -7.18,8.597 -5.912,3.348 -13.414,0.986 -16.34,-5.138 l -3.137,-6.587 C 110.615,82.777 98.116,78.081 87.357,82.727 c -7.252,3.172 -6.953,10.214 -8.015,14.57 -2.041,10.609 -9.995,19.106 -20.452,21.831 l -44.898,11.694 c -7.076,1.836 -8.245,8.338 -9.171,9.774 -1.88,4.234 -6.073,6.959 -10.699,6.959 h -7.18 c -9.623,0 -18.009,-6.576 -20.302,-15.929 -2.5,-8.443 -1.92,-12.765 -6.244,-16.561 l -9.473,-8.285 c -3.569,-3.117 -4.896,-8.085 -3.368,-12.57 l 5.5,-16.189 c 1.036,-3.027 0.775,-6.355 -0.714,-9.191 L -59.062,47.02 c -3.629,-6.938 -5.309,-14.731 -4.866,-22.545 L -62.531,0 H -30"
             style="fill:none;stroke:#ffff;stroke-width:15;stroke-linecap:round;stroke-linejoin:round;stroke-miterlimit:10;stroke-dasharray:none;stroke-opacity:1"
             id="path1011" /></g><g
           id="g1013"
           transform="translate(201.2285,356.9453)"><path
             d="m 0,0 h -32.531 l 0.644,-11.212 c 1.042,-18.104 -5.318,-27.954 -11.966,-51.102 -7.707,-23.901 2.431,-31.539 -5.41,-55.506 l -9.12,-27.954 c -0.192,-0.594 -0.372,-1.187 -0.534,-1.78 H 42.725 c -4.941,6.929 -0.822,17.294 8.296,18.321 l 9.552,1.076 c 3.932,0.442 7.381,2.856 9.151,6.395 l 6.656,13.313 c 1.851,3.691 5.501,6.135 9.614,6.436 l 20.844,1.518 c 1.473,0.108 2.92,0.32 4.345,0.605 -8.542,9.896 -18.074,22.22 -25.086,34.876 -0.009,0.018 -0.018,0.036 -0.027,0.055 -5.869,10.604 -9.961,21.426 -10.215,31.251 C 75.511,-21.315 79.464,-9.567 86.424,0 H 30"
             style="fill:none;stroke:#ffff;stroke-width:15;stroke-linecap:round;stroke-linejoin:round;stroke-miterlimit:10;stroke-dasharray:none;stroke-opacity:1"
             id="path1015" /></g><g
           id="g1017"
           transform="translate(384.3276,303.8467)"><path
             d="m 0,0 c 2.66,6.623 4.526,13.634 4.526,20.361 0,30.862 -25.019,55.89 -55.889,55.89 -31.797,0 -56.725,-26.503 -55.881,-56.86 0.254,-9.825 4.346,-20.647 10.215,-31.252 0.009,-0.018 0.018,-0.036 0.027,-0.055 8.114,-14.646 19.607,-28.854 29.03,-39.362 8.858,-9.879 24.36,-9.879 33.218,0 6.373,7.108 13.691,15.91 20.273,25.394"
             style="fill:none;stroke:#ffff;stroke-width:15;stroke-linecap:round;stroke-linejoin:round;stroke-miterlimit:10;stroke-dasharray:none;stroke-opacity:1"
             id="path1019" /></g></g></g></g></svg>
