<?xml version="1.0" encoding="UTF-8" standalone="no"?>
<!-- Created with Inkscape (http://www.inkscape.org/) -->

<svg
   version="1.1"
   id="svg6129"
   xml:space="preserve"
   width="682.66669"
   height="682.66669"
   viewBox="0 0 682.66669 682.66669"
   xmlns="http://www.w3.org/2000/svg"
   xmlns:svg="http://www.w3.org/2000/svg"><defs
     id="defs6133"><clipPath
       clipPathUnits="userSpaceOnUse"
       id="clipPath6143"><path
         d="M 0,512 H 512 V 0 H 0 Z"
         id="path6141" /></clipPath></defs><g
     id="g6135"
     transform="matrix(1.3333333,0,0,-1.3333333,0,682.66667)"><g
       id="g6137"><g
         id="g6139"
         clip-path="url(#clipPath6143)"><g
           id="g6145"
           transform="translate(93.8828,89.7266)"><path
             d="m 0,0 c -10.307,0.988 -20.591,2.281 -30.839,3.879 l -21.139,3.296 v 47.14 c 0,36.745 29.788,66.533 66.533,66.533 H 85.79 c 36.745,0 66.532,-29.788 66.532,-66.533 V 7.175 L 131.185,3.879 C 99.46,-1.067 67.396,-3.091 35.394,-2.191"
             style="fill:none;stroke:#ffff;stroke-width:15;stroke-linecap:round;stroke-linejoin:round;stroke-miterlimit:10;stroke-dasharray:none;stroke-opacity:1"
             id="path6147" /></g><g
           id="g6149"
           transform="translate(68.8516,93.0859)"><path
             d="m 0,0 v 45.161 c 0,39.945 23.84,72.327 53.248,72.327 h 43.911 c 29.408,0 53.248,-32.382 53.248,-72.327 V 0"
             style="fill:none;stroke:#ffff;stroke-width:15;stroke-linecap:round;stroke-linejoin:round;stroke-miterlimit:10;stroke-dasharray:none;stroke-opacity:1"
             id="path6151" /></g><g
           id="g6153"
           transform="translate(122.3438,210.5742)"><path
             d="m 0,0 v 11.867 c 0,7.268 5.891,13.158 13.158,13.158 h 17.107 c 7.267,0 13.159,-5.89 13.159,-13.158 V 0"
             style="fill:none;stroke:#ffff;stroke-width:15;stroke-linecap:round;stroke-linejoin:round;stroke-miterlimit:10;stroke-dasharray:none;stroke-opacity:1"
             id="path6155" /></g><g
           id="g6157"
           transform="translate(122.3438,333.585)"><path
             d="M 0,0 V 82.544"
             style="fill:none;stroke:#ffff;stroke-width:15;stroke-linecap:round;stroke-linejoin:round;stroke-miterlimit:10;stroke-dasharray:none;stroke-opacity:1"
             id="path6159" /></g><g
           id="g6161"
           transform="translate(389.6562,333.585)"><path
             d="M 0,0 V 82.544"
             style="fill:none;stroke:#ffff;stroke-width:15;stroke-linecap:round;stroke-linejoin:round;stroke-miterlimit:10;stroke-dasharray:none;stroke-opacity:1"
             id="path6163" /></g><g
           id="g6165"
           transform="translate(169.4355,484.5)"><path
             d="m 0,0 c 0,-47.731 38.833,-86.564 86.564,-86.564 47.732,0 86.565,38.833 86.565,86.564"
             style="fill:none;stroke:#ffff;stroke-width:15;stroke-linecap:round;stroke-linejoin:round;stroke-miterlimit:10;stroke-dasharray:none;stroke-opacity:1"
             id="path6167" /></g><g
           id="g6169"
           transform="translate(196.7129,467.8516)"><path
             d="M 0,0 C -1.483,5.296 -2.277,10.879 -2.277,16.648"
             style="fill:none;stroke:#ffff;stroke-width:15;stroke-linecap:round;stroke-linejoin:round;stroke-miterlimit:10;stroke-dasharray:none;stroke-opacity:1"
             id="path6171" /></g><g
           id="g6173"
           transform="translate(317.5645,484.5)"><path
             d="m 0,0 c 0,-34.001 -27.563,-61.564 -61.564,-61.564 -15.927,0 -30.442,6.047 -41.373,15.972"
             style="fill:none;stroke:#ffff;stroke-width:15;stroke-linecap:round;stroke-linejoin:round;stroke-miterlimit:10;stroke-dasharray:none;stroke-opacity:1"
             id="path6175" /></g><g
           id="g6177"
           transform="translate(148.792,182.1328)"><path
             d="m 0,0 6.036,-18.578 c 0.345,-1.062 1.334,-1.78 2.45,-1.78 h 19.535 c 4.825,0 6.831,-6.174 2.927,-9.01 L 15.145,-40.85 c -0.904,-0.656 -1.281,-1.819 -0.936,-2.88 l 6.036,-18.579 c 1.491,-4.588 -3.761,-8.404 -7.664,-5.568 l -15.804,11.482 c -0.902,0.657 -2.125,0.657 -3.028,0 l -15.804,-11.482 c -3.903,-2.836 -9.154,0.98 -7.664,5.568 l 6.037,18.579 c 0.345,1.061 -0.033,2.224 -0.936,2.88 l -15.804,11.482 c -3.903,2.836 -1.896,9.01 2.928,9.01 h 19.534 c 1.116,0 2.106,0.718 2.45,1.78 L -9.474,0 C -7.982,4.589 -1.491,4.589 0,0 Z"
             style="fill:none;stroke:#ffff;stroke-width:15;stroke-linecap:round;stroke-linejoin:round;stroke-miterlimit:10;stroke-dasharray:none;stroke-opacity:1"
             id="path6179" /></g><g
           id="g6181"
           transform="translate(263.9785,351.5801)"><path
             d="m 0,0 10.169,-31.296 c 0.581,-1.788 2.247,-2.999 4.127,-2.999 h 32.906 c 8.127,0 11.506,-10.399 4.931,-15.176 L 25.512,-68.813 c -1.522,-1.105 -2.158,-3.064 -1.576,-4.852 l 10.168,-31.295 c 2.511,-7.729 -6.335,-14.156 -12.91,-9.38 l -26.622,19.342 c -1.52,1.105 -3.581,1.105 -5.101,0 l -26.622,-19.342 c -6.575,-4.776 -15.421,1.651 -12.91,9.38 l 10.168,31.295 c 0.581,1.788 -0.054,3.747 -1.576,4.852 l -26.621,19.342 c -6.575,4.777 -3.196,15.176 4.931,15.176 h 32.906 c 1.88,0 3.546,1.211 4.127,2.999 L -15.957,0 C -13.446,7.729 -2.511,7.729 0,0 Z"
             style="fill:none;stroke:#ffff;stroke-width:15;stroke-linecap:round;stroke-linejoin:round;stroke-miterlimit:10;stroke-dasharray:none;stroke-opacity:1"
             id="path6183" /></g><g
           id="g6185"
           transform="translate(333.2803,165.0937)"><path
             d="M 0,0 3.657,41.799 C 3.84,43.882 5.584,45.48 7.675,45.48 H 143.44 c 2.091,0 3.835,-1.598 4.018,-3.681 l 15.034,-171.841 c 0.206,-2.357 -1.652,-4.384 -4.017,-4.384 H -7.359 c -2.367,0 -4.224,2.027 -4.018,4.384 l 8.18,93.495"
             style="fill:none;stroke:#ffff;stroke-width:15;stroke-linecap:round;stroke-linejoin:round;stroke-miterlimit:10;stroke-dasharray:none;stroke-opacity:1"
             id="path6187" /></g><g
           id="g6189"
           transform="translate(364.6475,210.5742)"><path
             d="m 0,0 v 5.861 c 0,24.407 19.784,44.191 44.19,44.191 24.406,0 44.191,-19.784 44.191,-44.191 V 0"
             style="fill:none;stroke:#ffff;stroke-width:15;stroke-linecap:round;stroke-linejoin:round;stroke-miterlimit:10;stroke-dasharray:none;stroke-opacity:1"
             id="path6191" /></g><g
           id="g6193"
           transform="translate(414.1201,161.2568)"><path
             d="m 0,0 6.731,-20.719 c 0.385,-1.183 1.488,-1.985 2.733,-1.985 h 21.785 c 5.38,0 7.617,-6.885 3.264,-10.047 L 16.889,-45.556 c -1.007,-0.732 -1.428,-2.028 -1.043,-3.213 l 6.731,-20.717 c 1.662,-5.118 -4.194,-9.372 -8.547,-6.21 l -17.624,12.804 c -1.007,0.732 -2.37,0.732 -3.378,0 l -17.624,-12.804 c -4.352,-3.162 -10.209,1.092 -8.546,6.21 l 6.732,20.717 c 0.385,1.185 -0.037,2.481 -1.044,3.213 l -17.624,12.805 c -4.353,3.162 -2.115,10.047 3.265,10.047 h 21.784 c 1.245,0 2.348,0.802 2.732,1.985 L -10.564,0 C -8.902,5.116 -1.663,5.116 0,0 Z"
             style="fill:none;stroke:#ffff;stroke-width:15;stroke-linecap:round;stroke-linejoin:round;stroke-miterlimit:10;stroke-dasharray:none;stroke-opacity:1"
             id="path6195" /></g><g
           id="g6197"
           transform="translate(389.6562,210.5742)"><path
             d="m 0,0 v 123.01 c 0,2.439 2.949,3.66 4.674,1.936 L 41.889,87.73 c 1.069,-1.068 2.802,-1.068 3.871,0 l 68.282,68.283 c 1.069,1.069 1.069,2.801 0,3.871 l -82.343,82.343 c -20.297,20.296 -47.824,31.699 -76.528,31.699 h -177.654 c -28.704,0 -56.232,-11.403 -76.529,-31.699 l -82.342,-82.343 c -1.07,-1.07 -1.07,-2.802 0,-3.871 l 68.282,-68.283 c 1.068,-1.068 2.801,-1.068 3.871,0 l 37.215,37.216 c 1.724,1.724 4.674,0.503 4.674,-1.936 V 0"
             style="fill:none;stroke:#ffff;stroke-width:15;stroke-linecap:round;stroke-linejoin:round;stroke-miterlimit:10;stroke-dasharray:none;stroke-opacity:1"
             id="path6199" /></g><g
           id="g6201"
           transform="translate(280.4307,61.0273)"><path
             d="M 0,0 H 43.745"
             style="fill:none;stroke:#ffff;stroke-width:15;stroke-linecap:round;stroke-linejoin:round;stroke-miterlimit:10;stroke-dasharray:none;stroke-opacity:1"
             id="path6203" /></g><g
           id="g6205"
           transform="translate(41.9053,96.9014)"><path
             d="m 0,0 -28.297,-24.991 c -11.06,-9.769 -6.345,-27.962 8.068,-31.128 80.625,-17.71 164.133,-17.71 244.757,0 14.413,3.166 19.129,21.359 8.069,31.128 L 204.3,0"
             style="fill:none;stroke:#ffff;stroke-width:15;stroke-linecap:round;stroke-linejoin:round;stroke-miterlimit:10;stroke-dasharray:none;stroke-opacity:1"
             id="path6207" /></g></g></g></g></svg>
